<svg width="32" height="32" viewBox="0 0 32 32" fill="none" xmlns="http://www.w3.org/2000/svg">
<path d="M15.5021 0.844773C18.4058 0.844773 21.2443 1.73361 23.6587 3.39889C26.0731 5.06417 27.9549 7.43109 29.0661 10.2003C30.1773 12.9696 30.4681 16.0168 29.9016 18.9566C29.3351 21.8965 27.9368 24.5969 25.8835 26.7164C23.8303 28.8359 21.2142 30.2792 18.3663 30.864C15.5183 31.4488 12.5664 31.1487 9.88364 30.0016C7.20092 28.8545 4.90796 26.912 3.29473 24.4198C1.68149 21.9275 0.820426 18.9974 0.820426 16C0.824218 11.9818 2.37224 8.12926 5.12476 5.28796C7.87728 2.44665 11.6094 0.848687 15.5021 0.844773ZM15.5021 1.39448e-07C12.4364 -0.000417573 9.43939 0.937611 6.89016 2.69546C4.34093 4.45331 2.35393 6.95202 1.18046 9.8756C0.00699069 12.7992 -0.300254 16.0163 0.297585 19.1201C0.895425 22.224 2.3715 25.0751 4.53913 27.313C6.70676 29.5508 9.46859 31.0749 12.4754 31.6924C15.4821 32.3099 18.5988 31.9932 21.4311 30.7823C24.2635 29.5713 26.6844 27.5206 28.3876 24.8893C30.0909 22.2581 31 19.1646 31 16C31 11.7569 29.3672 7.68756 26.4609 4.68704C23.5545 1.68652 19.6126 0.00056021 15.5021 1.39448e-07Z" fill="#00AFE5"/>
<path d="M22.7203 9.00938L6.61682 15.134C6.51681 15.1721 6.431 15.2401 6.37113 15.3288C6.31126 15.4175 6.28024 15.5226 6.28232 15.6296C6.2844 15.7366 6.31948 15.8403 6.38275 15.9266C6.44603 16.013 6.53441 16.0776 6.63583 16.1118L10.7879 17.5141L20.2451 11.4128L12.7562 18.3969L18.5851 22.8214C18.7245 22.9288 18.8885 22.9996 19.0622 23.0275C19.2358 23.0554 19.4137 23.0395 19.5797 22.9811C19.7457 22.9228 19.8944 22.8239 20.0125 22.6935C20.1305 22.5631 20.2141 22.4052 20.2557 22.2343L23.4003 9.63029C23.4246 9.53854 23.4232 9.44191 23.3964 9.35087C23.3696 9.25984 23.3184 9.17788 23.2484 9.11389C23.1783 9.04991 23.092 9.00634 22.9989 8.98791C22.9058 8.96949 22.8095 8.97691 22.7203 9.00938Z" fill="#00AFE5"/>
</svg>
