<svg xmlns="http://www.w3.org/2000/svg" width="44" height="40" viewBox="0 0 44 40" fill="none">
  <path d="M24.0674 0.653107C26.1485 0.658807 27.2048 0.670206 28.1168 0.696806L28.4757 0.710105C28.8901 0.725305 29.2989 0.744304 29.7928 0.767104C31.7611 0.862102 33.1041 1.18129 34.2825 1.65058C35.5035 2.13317 36.532 2.78676 37.5606 3.84123C38.5012 4.79101 39.2291 5.9399 39.6935 7.20795C40.1504 8.41822 40.4612 9.79759 40.5537 11.821C40.5759 12.3264 40.5944 12.7463 40.6092 13.1738L40.6203 13.5424C40.6481 14.4772 40.6592 15.5621 40.6629 17.6995L40.6647 19.1169V21.6058C40.6692 22.9917 40.6551 24.3775 40.6222 25.7629L40.6111 26.1315C40.5963 26.559 40.5778 26.9789 40.5556 27.4843C40.4631 29.5077 40.1486 30.8852 39.6935 32.0974C39.2304 33.3661 38.5024 34.5153 37.5606 35.4641C36.6355 36.4299 35.517 37.1774 34.2825 37.6547C33.1041 38.124 31.7611 38.4432 29.7928 38.5382C29.3539 38.5595 28.9148 38.5784 28.4757 38.5952L28.1168 38.6066C27.2048 38.6332 26.1485 38.6465 24.0674 38.6503L22.6873 38.6522H20.2658C18.9158 38.657 17.5659 38.6424 16.2164 38.6085L15.8575 38.5971C15.4183 38.58 14.9793 38.5604 14.5403 38.5382C12.572 38.4432 11.229 38.124 10.0488 37.6547C8.81427 37.1786 7.69609 36.4309 6.77259 35.4641C5.83107 34.5147 5.10254 33.3657 4.6378 32.0974C4.18087 30.8871 3.87008 29.5077 3.77759 27.4843C3.75698 27.0335 3.73848 26.5825 3.72209 26.1315L3.71284 25.7629C3.67875 24.3775 3.66334 22.9917 3.66659 21.6058V17.6995C3.66143 16.3137 3.675 14.9278 3.70729 13.5424L3.72024 13.1738C3.73504 12.7463 3.75354 12.3264 3.77574 11.821C3.86823 9.79759 4.17902 8.42013 4.63594 7.20795C5.10048 5.9386 5.83047 4.78935 6.77444 3.84123C7.69771 2.87506 8.81515 2.12745 10.0488 1.65058C11.229 1.18129 12.5702 0.862102 14.5403 0.767104C15.0324 0.744304 15.4431 0.725305 15.8575 0.710105L16.2164 0.698705C17.5653 0.664949 18.9146 0.650381 20.2639 0.655007L24.0674 0.653107ZM22.1656 10.1529C19.7125 10.1529 17.3599 11.1538 15.6252 12.9353C13.8906 14.7169 12.9161 17.1332 12.9161 19.6527C12.9161 22.1722 13.8906 24.5885 15.6252 26.37C17.3599 28.1516 19.7125 29.1524 22.1656 29.1524C24.6188 29.1524 26.9714 28.1516 28.7061 26.37C30.4407 24.5885 31.4152 22.1722 31.4152 19.6527C31.4152 17.1332 30.4407 14.7169 28.7061 12.9353C26.9714 11.1538 24.6188 10.1529 22.1656 10.1529ZM22.1656 13.9528C22.8944 13.9527 23.6161 14.1 24.2895 14.3863C24.9629 14.6726 25.5747 15.0924 26.0902 15.6216C26.6056 16.1508 27.0145 16.779 27.2935 17.4705C27.5725 18.162 27.7162 18.9032 27.7163 19.6517C27.7164 20.4002 27.573 21.1414 27.2942 21.833C27.0154 22.5246 26.6067 23.153 26.0915 23.6824C25.5762 24.2118 24.9645 24.6317 24.2912 24.9183C23.6179 25.2048 22.8963 25.3524 22.1675 25.3525C20.6956 25.3525 19.284 24.752 18.2433 23.6831C17.2025 22.6141 16.6178 21.1644 16.6178 19.6527C16.6178 18.141 17.2025 16.6912 18.2433 15.6222C19.284 14.5533 20.6956 13.9528 22.1675 13.9528M31.8795 7.30295C31.2662 7.30295 30.6781 7.55317 30.2444 7.99856C29.8107 8.44394 29.5671 9.04802 29.5671 9.6779C29.5671 10.3078 29.8107 10.9118 30.2444 11.3572C30.6781 11.8026 31.2662 12.0528 31.8795 12.0528C32.4928 12.0528 33.0809 11.8026 33.5146 11.3572C33.9483 10.9118 34.1919 10.3078 34.1919 9.6779C34.1919 9.04802 33.9483 8.44394 33.5146 7.99856C33.0809 7.55317 32.4928 7.30295 31.8795 7.30295Z" fill="white"/>
</svg>