<svg xmlns="http://www.w3.org/2000/svg" width="84" height="84" viewBox="0 0 84 84" fill="none">
  <g clip-path="url(#clip0_22_788)">
    <path d="M42.0028 83.5475C65.2003 83.5475 84.0055 64.7423 84.0055 41.5448C84.0055 18.3473 65.2003 -0.458008 42.0028 -0.458008C18.8053 -0.458008 0 18.3473 0 41.5448C0 64.7423 18.8053 83.5475 42.0028 83.5475Z" fill="url(#paint0_linear_22_788)"/>
    <path d="M60.9916 23.4319L16.7046 41.5558L56.218 81.0693C63.609 78.405 70.1056 73.7231 74.9711 67.5543C79.8365 61.3856 82.876 53.977 83.7449 46.1686L60.9916 23.4319Z" fill="#007AAE"/>
    <path d="M28.0981 44.9101L32.9327 58.0166L54.3776 28.2276L28.0981 44.9101Z" fill="#C2DAEC"/>
    <path d="M33.4592 47.8208L32.999 58.1496L44.3147 48.5471L33.4592 47.8208Z" fill="#9FCDE2"/>
    <path d="M59.6386 23.1935L17.3642 39.2716C17.1017 39.3717 16.8764 39.5503 16.7192 39.7832C16.5621 40.0161 16.4806 40.2918 16.4861 40.5727C16.4916 40.8536 16.5836 41.1259 16.7497 41.3525C16.9158 41.5791 17.1479 41.7489 17.4141 41.8386L28.2973 45.5089L53.1242 29.4917L33.4645 47.8263L48.7665 59.4691C49.1327 59.7509 49.5635 59.9368 50.0198 60.0096C50.4762 60.0825 50.9434 60.0402 51.3792 59.8865C51.815 59.7328 52.2055 59.4726 52.515 59.1295C52.8246 58.7865 53.0436 58.3715 53.1519 57.9223L61.4239 24.829C61.4888 24.5878 61.4863 24.3334 61.4165 24.0935C61.3467 23.8537 61.2124 23.6376 61.0282 23.4688C60.844 23.3001 60.617 23.1852 60.372 23.1366C60.1269 23.0881 59.8733 23.1077 59.6386 23.1935Z" fill="#ECF8FD"/>
  </g>
  <defs>
    <linearGradient id="paint0_linear_22_788" x1="12.3026" y1="11.8445" x2="71.6974" y2="71.2394" gradientUnits="userSpaceOnUse">
      <stop stop-color="#00AFE5"/>
      <stop offset="1" stop-color="#0094D4"/>
    </linearGradient>
    <clipPath id="clip0_22_788">
      <rect width="84" height="84" fill="white"/>
    </clipPath>
  </defs>
</svg>